<svg xmlns="http://www.w3.org/2000/svg" version="1.1" xmlns:xlink="http://www.w3.org/1999/xlink" xmlns:svgjs="http://svgjs.com/svgjs" width="1920" height="1080" preserveAspectRatio="none" viewBox="0 0 1920 1080"><g mask="url(&quot;#SvgjsMask1000&quot;)" fill="none"><rect width="1920" height="1080" x="0" y="0" fill="#0e2a47"></rect><path d="M65 1080L1145 0L1913 0L833 1080z" fill="url(#SvgjsLinearGradient1001)"></path><path d="M668.6 1080L1748.6 0L2270.6 0L1190.6 1080z" fill="url(#SvgjsLinearGradient1001)"></path><path d="M1803 1080L723 0L213 0L1293 1080z" fill="url(#SvgjsLinearGradient1002)"></path><path d="M1244.4 1080L164.4000000000001 0L-752.0999999999999 0L327.9000000000001 1080z" fill="url(#SvgjsLinearGradient1002)"></path><path d="M1318.0139523309106 1080L1920 478.01395233091057L1920 1080z" fill="url(#SvgjsLinearGradient1001)"></path><path d="M0 1080L601.9860476690894 1080L 0 478.01395233091057z" fill="url(#SvgjsLinearGradient1002)"></path></g><defs><mask id="SvgjsMask1000"><rect width="1920" height="1080" fill="#ffffff"></rect></mask><linearGradient x1="0%" y1="100%" x2="100%" y2="0%" id="SvgjsLinearGradient1001"><stop stop-color="rgba(15, 70, 185, 0.2)" offset="0"></stop><stop stop-opacity="0" stop-color="rgba(15, 70, 185, 0.2)" offset="0.66"></stop></linearGradient><linearGradient x1="100%" y1="100%" x2="0%" y2="0%" id="SvgjsLinearGradient1002"><stop stop-color="rgba(15, 70, 185, 0.2)" offset="0"></stop><stop stop-opacity="0" stop-color="rgba(15, 70, 185, 0.2)" offset="0.66"></stop></linearGradient></defs></svg>